# Blender 3.5.0
# www.blender.org
mtllib EnemyRightUpperArm.mtl
o 右上腕
v -1.500000 -9.000000 1.500001
v -1.500000 0.000000 1.500000
v -1.500000 -9.000000 -1.499999
v -1.500000 -0.000000 -1.500000
v 1.500000 -9.000000 1.500001
v 1.500000 0.000000 1.500000
v 1.500000 -9.000000 -1.499999
v 1.500000 -0.000000 -1.500000
vn -1.0000 -0.0000 -0.0000
vn -0.0000 -0.0000 -1.0000
vn 1.0000 -0.0000 -0.0000
vn -0.0000 -0.0000 1.0000
vn -0.0000 -1.0000 -0.0000
vn -0.0000 1.0000 -0.0000
vt 0.130583 0.631532
vt 0.724661 0.011641
vt 0.749842 0.941794
vt 0.130583 0.775022
vt 0.724661 0.155131
vt 0.464128 0.941161
vt 0.701379 0.011641
vt 0.749842 0.893964
vt 0.082754 0.631532
vt 0.082754 0.775022
vt 0.701379 0.155131
vt 0.464128 0.893332
vt 0.772491 0.011641
vt 0.773124 0.345818
vt 0.797672 0.941794
vt 0.773124 0.489308
vt 0.772491 0.155131
vt 0.416298 0.941161
vt 0.820954 0.345818
vt 0.653549 0.011641
vt 0.797672 0.893964
vt 0.416298 0.893332
vt 0.653549 0.155131
vt 0.820954 0.489308
s 0
usemtl マテリアル.015
f 2/4/1 3/9/1 1/1/1
f 4/11/2 7/20/2 3/7/2
f 8/24/3 5/14/3 7/19/3
f 6/17/4 1/2/4 5/13/4
f 7/21/5 1/3/5 3/8/5
f 4/12/6 6/18/6 8/22/6
f 2/4/1 4/10/1 3/9/1
f 4/11/2 8/23/2 7/20/2
f 8/24/3 6/16/3 5/14/3
f 6/17/4 2/5/4 1/2/4
f 7/21/5 5/15/5 1/3/5
f 4/12/6 2/6/6 6/18/6
