# Blender 3.5.0
# www.blender.org
mtllib EnemyLeftShin.mtl
o 左すね
v -1.000000 -7.000000 1.000000
v -1.000000 -1.000000 1.000000
v -1.000000 -7.000000 -0.999999
v -1.000000 -1.000000 -1.000000
v 1.000000 -7.000000 1.000000
v 1.000000 -1.000000 1.000000
v 1.000000 -7.000000 -0.999999
v 1.000000 -1.000000 -1.000000
vn -1.0000 -0.0000 -0.0000
vn -0.0000 -0.0000 -1.0000
vn 1.0000 -0.0000 -0.0000
vn -0.0000 -0.0000 1.0000
vn -0.0000 -1.0000 -0.0000
vn -0.0000 1.0000 -0.0000
vt 0.059471 0.631532
vt 0.321903 0.345818
vt 0.082754 0.846134
vt 0.059471 0.775022
vt 0.178413 0.345818
vt 0.059471 0.846134
vt 0.321903 0.489308
vt 0.082754 0.798304
vt 0.011641 0.631532
vt 0.011641 0.775022
vt 0.178413 0.489308
vt 0.059471 0.798304
vt 0.321903 0.393648
vt 0.130583 0.846134
vt 0.178413 0.393648
vt 0.011641 0.846134
vt 0.321903 0.441478
vt 0.130583 0.798304
vt 0.011641 0.798304
vt 0.178413 0.441478
s 0
usemtl マテリアル.006
f 2/4/1 3/9/1 1/1/1
f 4/11/2 7/17/2 3/7/2
f 8/20/3 5/13/3 7/17/3
f 6/15/4 1/2/4 5/13/4
f 7/18/5 1/3/5 3/8/5
f 4/12/6 6/16/6 8/19/6
f 2/4/1 4/10/1 3/9/1
f 4/11/2 8/20/2 7/17/2
f 8/20/3 6/15/3 5/13/3
f 6/15/4 2/5/4 1/2/4
f 7/18/5 5/14/5 1/3/5
f 4/12/6 2/6/6 6/16/6
