# Blender 3.5.0
# www.blender.org
mtllib EnemyLeftThigh.mtl
o 左太もも
v -1.500000 -12.000000 1.500003
v -1.500000 -1.500000 1.500000
v -1.500000 -12.000000 -1.499997
v -1.500000 -1.500000 -1.500000
v 1.500000 -12.000000 1.500003
v 1.500000 -1.500000 1.500000
v 1.500000 -12.000000 -1.499997
v 1.500000 -1.500000 -1.500000
vn -1.0000 -0.0000 -0.0000
vn -0.0000 -0.0000 -1.0000
vn 1.0000 -0.0000 -0.0000
vn -0.0000 -0.0000 1.0000
vn -0.0000 -1.0000 -0.0000
vn -0.0000 1.0000 -0.0000
vt 0.297356 0.512590
vt 0.345185 0.202328
vt 0.011641 0.917246
vt 0.297356 0.679995
vt 0.345185 0.369733
vt 0.201696 0.917246
vt 0.488675 0.202328
vt 0.011641 0.869417
vt 0.249526 0.512590
vt 0.249526 0.679995
vt 0.488675 0.369733
vt 0.201696 0.869417
vt 0.393015 0.202328
vt 0.059471 0.917246
vt 0.393015 0.369733
vt 0.153866 0.917246
vt 0.440845 0.202328
vt 0.059471 0.869417
vt 0.153866 0.869417
vt 0.440845 0.369733
s 0
usemtl マテリアル.009
f 2/4/1 3/9/1 1/1/1
f 4/11/2 7/17/2 3/7/2
f 8/20/3 5/13/3 7/17/3
f 6/15/4 1/2/4 5/13/4
f 7/18/5 1/3/5 3/8/5
f 4/12/6 6/16/6 8/19/6
f 2/4/1 4/10/1 3/9/1
f 4/11/2 8/20/2 7/17/2
f 8/20/3 6/15/3 5/13/3
f 6/15/4 2/5/4 1/2/4
f 7/18/5 5/14/5 1/3/5
f 4/12/6 2/6/6 6/16/6
