# Blender 3.5.0
# www.blender.org
mtllib EnemyRightShin.mtl
o 右すね
v -1.000000 -7.000000 1.000000
v -1.000000 -1.000000 1.000000
v -1.000000 -7.000000 -0.999999
v -1.000000 -1.000000 -1.000000
v 1.000000 -7.000000 1.000000
v 1.000000 -1.000000 1.000000
v 1.000000 -7.000000 -0.999999
v 1.000000 -1.000000 -1.000000
vn -1.0000 -0.0000 -0.0000
vn -0.0000 -0.0000 -1.0000
vn 1.0000 -0.0000 -0.0000
vn -0.0000 -0.0000 1.0000
vn -0.0000 -1.0000 -0.0000
vn -0.0000 1.0000 -0.0000
vt 0.155131 0.441478
vt 0.892067 0.679362
vt 0.011641 0.441478
vt 0.939896 0.608250
vt 0.892067 0.631532
vt 0.155131 0.393648
vt 0.011641 0.393648
vt 0.939896 0.560420
vt 0.155131 0.489308
vt 0.153866 0.631532
vt 0.939896 0.679362
vt 0.153866 0.775022
vt 0.011641 0.489308
vt 0.892067 0.608250
vt 0.201696 0.631532
vt 0.155131 0.345818
vt 0.939896 0.631532
vt 0.892067 0.560420
vt 0.011641 0.345818
vt 0.201696 0.775022
s 0
usemtl マテリアル
f 2/3/1 3/6/1 1/1/1
f 4/7/2 7/16/2 3/6/2
f 8/20/3 5/10/3 7/15/3
f 6/13/4 1/1/4 5/9/4
f 7/17/5 1/2/5 3/5/5
f 4/8/6 6/14/6 8/18/6
f 2/3/1 4/7/1 3/6/1
f 4/7/2 8/19/2 7/16/2
f 8/20/3 6/12/3 5/10/3
f 6/13/4 2/3/4 1/1/4
f 7/17/5 5/11/5 1/2/5
f 4/8/6 2/4/6 6/14/6
