# Blender 3.5.0
# www.blender.org
mtllib EnemyLeftUpperArm.mtl
o 左上腕
v -1.000000 -6.000000 1.000000
v -1.000000 0.000000 1.000000
v -1.000000 -6.000000 -1.000000
v -1.000000 -0.000000 -1.000000
v 1.000000 -6.000000 1.000000
v 1.000000 0.000000 1.000000
v 1.000000 -6.000000 -1.000000
v 1.000000 -0.000000 -1.000000
vn -1.0000 -0.0000 -0.0000
vn -0.0000 -0.0000 -1.0000
vn 1.0000 -0.0000 -0.0000
vn -0.0000 -0.0000 1.0000
vn -0.0000 -1.0000 -0.0000
vn -0.0000 1.0000 -0.0000
vt 0.797672 0.560420
vt 0.653549 0.178413
vt 0.937681 0.201696
vt 0.797672 0.703910
vt 0.653549 0.321903
vt 0.985511 0.130583
vt 0.749842 0.345818
vt 0.937681 0.153866
vt 0.749842 0.560420
vt 0.749842 0.703910
vt 0.749842 0.489308
vt 0.985511 0.082754
vt 0.701379 0.178413
vt 0.583070 0.679362
vt 0.985511 0.201696
vt 0.583070 0.822852
vt 0.701379 0.321903
vt 0.937681 0.130583
vt 0.630900 0.679362
vt 0.702012 0.345818
vt 0.985511 0.153866
vt 0.937681 0.082754
vt 0.702012 0.489308
vt 0.630900 0.822852
s 0
usemtl マテリアル.007
f 2/4/1 3/9/1 1/1/1
f 4/11/2 7/20/2 3/7/2
f 8/24/3 5/14/3 7/19/3
f 6/17/4 1/2/4 5/13/4
f 7/21/5 1/3/5 3/8/5
f 4/12/6 6/18/6 8/22/6
f 2/4/1 4/10/1 3/9/1
f 4/11/2 8/23/2 7/20/2
f 8/24/3 6/16/3 5/14/3
f 6/17/4 2/5/4 1/2/4
f 7/21/5 5/15/5 1/3/5
f 4/12/6 2/6/6 6/18/6
