# Blender 3.5.0
# www.blender.org
mtllib EnemyRightAnkle.mtl
o 右足
v -1.000000 -3.000000 1.000000
v -1.000000 -1.000000 1.000000
v -1.000000 -3.000000 -1.000000
v -1.000000 -1.000000 -1.000000
v 1.000000 -3.000000 1.000000
v 1.000000 -1.000000 1.000000
v 1.000000 -3.000000 -1.000000
v 1.000000 -1.000000 -1.000000
vn -1.0000 -0.0000 -0.0000
vn -0.0000 -0.0000 -1.0000
vn 1.0000 -0.0000 -0.0000
vn -0.0000 -0.0000 1.0000
vn -0.0000 -1.0000 -0.0000
vn -0.0000 1.0000 -0.0000
vt 0.868784 0.822852
vt 0.511958 0.893964
vt 0.820954 0.822852
vt 0.201696 0.846134
vt 0.511958 0.846134
vt 0.868784 0.775022
vt 0.820954 0.775022
vt 0.201696 0.798304
vt 0.868784 0.870682
vt 0.985511 0.011641
vt 0.559787 0.893964
vt 0.937681 0.011641
vt 0.820954 0.870682
vt 0.153866 0.846134
vt 0.985511 0.059471
vt 0.868784 0.727192
vt 0.559787 0.846134
vt 0.153866 0.798304
vt 0.820954 0.727192
vt 0.937681 0.059471
s 0
usemtl マテリアル.005
f 2/3/1 3/6/1 1/1/1
f 4/7/2 7/16/2 3/6/2
f 8/20/3 5/10/3 7/15/3
f 6/13/4 1/1/4 5/9/4
f 7/17/5 1/2/5 3/5/5
f 4/8/6 6/14/6 8/18/6
f 2/3/1 4/7/1 3/6/1
f 4/7/2 8/19/2 7/16/2
f 8/20/3 6/12/3 5/10/3
f 6/13/4 2/3/4 1/1/4
f 7/17/5 5/11/5 1/2/5
f 4/8/6 2/4/6 6/14/6
