# Blender 3.5.0
# www.blender.org
mtllib EnemyRightThigh.mtl
o 右太もも
v -1.500000 -12.000000 1.500003
v -1.500000 -1.500000 1.500000
v -1.500000 -12.000000 -1.499997
v -1.500000 -1.500000 -1.500000
v 1.500000 -12.000000 1.500003
v 1.500000 -1.500000 1.500000
v 1.500000 -12.000000 -1.499997
v 1.500000 -1.500000 -1.500000
vn -1.0000 -0.0000 -0.0000
vn -0.0000 -0.0000 -1.0000
vn 1.0000 -0.0000 -0.0000
vn -0.0000 -0.0000 1.0000
vn -0.0000 -1.0000 -0.0000
vn -0.0000 1.0000 -0.0000
vt 0.440845 0.011641
vt 0.249526 0.917879
vt 0.440845 0.179046
vt 0.702012 0.893964
vt 0.249526 0.870049
vt 0.393015 0.011641
vt 0.393015 0.179046
vt 0.702012 0.846134
vt 0.488675 0.011641
vt 0.416298 0.393015
vt 0.297356 0.917879
vt 0.416298 0.560420
vt 0.488675 0.179046
vt 0.654182 0.893964
vt 0.464128 0.393015
vt 0.345185 0.011641
vt 0.297356 0.870049
vt 0.654182 0.846134
vt 0.345185 0.179046
vt 0.464128 0.560420
s 0
usemtl マテリアル.003
f 2/3/1 3/6/1 1/1/1
f 4/7/2 7/16/2 3/6/2
f 8/20/3 5/10/3 7/15/3
f 6/13/4 1/1/4 5/9/4
f 7/17/5 1/2/5 3/5/5
f 4/8/6 6/14/6 8/18/6
f 2/3/1 4/7/1 3/6/1
f 4/7/2 8/19/2 7/16/2
f 8/20/3 6/12/3 5/10/3
f 6/13/4 2/3/4 1/1/4
f 7/17/5 5/11/5 1/2/5
f 4/8/6 2/4/6 6/14/6
