# Blender 3.5.0
# www.blender.org
mtllib PlayerTorso.mtl
o 胴
v -3.000000 1.000000 0.993378
v -3.000000 14.000000 0.993378
v -3.000000 1.000000 -0.993378
v -3.000000 14.000000 -0.993378
v 3.000000 1.000000 0.993378
v 3.000000 14.000000 0.993378
v 3.000000 1.000000 -0.993378
v 3.000000 14.000000 -0.993378
vn -1.0000 -0.0000 -0.0000
vn -0.0000 -0.0000 -1.0000
vn 1.0000 -0.0000 -0.0000
vn -0.0000 -0.0000 1.0000
vn -0.0000 -1.0000 -0.0000
vn -0.0000 1.0000 -0.0000
vt 0.559471 0.011641
vt 0.178413 0.011641
vt 0.866886 0.011641
vt 0.559471 0.322535
vt 0.178413 0.322535
vt 0.866886 0.321903
vt 0.155131 0.011641
vt 0.914399 0.011641
vt 0.511958 0.011641
vt 0.511958 0.322535
vt 0.155131 0.322535
vt 0.914399 0.321903
vt 0.321903 0.011641
vt 0.582753 0.011641
vt 0.866886 0.155131
vt 0.582753 0.322535
vt 0.321903 0.322535
vt 0.866886 0.178413
vt 0.630266 0.011641
vt 0.011641 0.011641
vt 0.914399 0.155131
vt 0.914399 0.178413
vt 0.011641 0.322535
vt 0.630266 0.322535
s 0
usemtl マテリアル.012
f 2/4/1 3/9/1 1/1/1
f 4/11/2 7/20/2 3/7/2
f 8/24/3 5/14/3 7/19/3
f 6/17/4 1/2/4 5/13/4
f 7/21/5 1/3/5 3/8/5
f 4/12/6 6/18/6 8/22/6
f 2/4/1 4/10/1 3/9/1
f 4/11/2 8/23/2 7/20/2
f 8/24/3 6/16/3 5/14/3
f 6/17/4 2/5/4 1/2/4
f 7/21/5 5/15/5 1/3/5
f 4/12/6 2/6/6 6/18/6
