# Blender 3.5.0
# www.blender.org
mtllib PlayerLeftForearm.mtl
o 左前腕
v -1.000000 -7.000000 1.000000
v -1.000000 -1.000000 1.000000
v -1.000000 -7.000000 -1.000000
v -1.000000 -1.000000 -1.000000
v 1.000000 -7.000000 1.000000
v 1.000000 -1.000000 1.000000
v 1.000000 -7.000000 -1.000000
v 1.000000 -1.000000 -1.000000
vn -1.0000 -0.0000 -0.0000
vn -0.0000 -0.0000 -1.0000
vn 1.0000 -0.0000 -0.0000
vn -0.0000 -0.0000 1.0000
vn -0.0000 -1.0000 -0.0000
vn -0.0000 1.0000 -0.0000
vt 0.559787 0.679362
vt 0.345185 0.440845
vt 0.559787 0.822852
vt 0.345185 0.584335
vt 0.985511 0.272808
vt 0.772491 0.178413
vt 0.345185 0.393015
vt 0.511958 0.679362
vt 0.511958 0.822852
vt 0.772491 0.321903
vt 0.985511 0.224978
vt 0.795774 0.178413
vt 0.393015 0.440845
vt 0.795774 0.321903
vt 0.393015 0.584335
vt 0.937681 0.272808
vt 0.843603 0.178413
vt 0.724661 0.178413
vt 0.393015 0.393015
vt 0.937681 0.224978
vt 0.724661 0.321903
vt 0.843603 0.321903
s 0
usemtl マテリアル.008
f 2/3/1 3/8/1 1/1/1
f 4/10/2 7/18/2 3/6/2
f 8/22/3 5/12/3 7/17/3
f 6/15/4 1/2/4 5/13/4
f 7/19/5 1/2/5 3/7/5
f 4/11/6 6/16/6 8/20/6
f 2/3/1 4/9/1 3/8/1
f 4/10/2 8/21/2 7/18/2
f 8/22/3 6/14/3 5/12/3
f 6/15/4 2/4/4 1/2/4
f 7/19/5 5/13/5 1/2/5
f 4/11/6 2/5/6 6/16/6
