# Blender 3.5.0
# www.blender.org
mtllib PlayerRightForearm.mtl
o 右前腕
v -1.000000 -7.000000 1.000000
v -1.000000 -1.000000 1.000000
v -1.000000 -7.000000 -1.000000
v -1.000000 -1.000000 -1.000000
v 1.000000 -7.000000 1.000000
v 1.000000 -1.000000 1.000000
v 1.000000 -7.000000 -1.000000
v 1.000000 -1.000000 -1.000000
vn -1.0000 -0.0000 -0.0000
vn -0.0000 -0.0000 -1.0000
vn 1.0000 -0.0000 -0.0000
vn -0.0000 -0.0000 1.0000
vn -0.0000 -1.0000 -0.0000
vn -0.0000 1.0000 -0.0000
vt 0.843603 0.011641
vt 0.511958 0.393648
vt 0.843603 0.155131
vt 0.511958 0.537137
vt 0.868784 0.941794
vt 0.297356 0.703277
vt 0.511958 0.345818
vt 0.795774 0.011641
vt 0.795774 0.155131
vt 0.297356 0.846767
vt 0.868784 0.893964
vt 0.654182 0.679362
vt 0.559787 0.393648
vt 0.654182 0.822852
vt 0.559787 0.537137
vt 0.820954 0.941794
vt 0.702012 0.679362
vt 0.249526 0.703277
vt 0.559787 0.345818
vt 0.820954 0.893964
vt 0.249526 0.846767
vt 0.702012 0.822852
s 0
usemtl マテリアル.002
f 2/3/1 3/8/1 1/1/1
f 4/10/2 7/18/2 3/6/2
f 8/22/3 5/12/3 7/17/3
f 6/15/4 1/2/4 5/13/4
f 7/19/5 1/2/5 3/7/5
f 4/11/6 6/16/6 8/20/6
f 2/3/1 4/9/1 3/8/1
f 4/10/2 8/21/2 7/18/2
f 8/22/3 6/14/3 5/12/3
f 6/15/4 2/4/4 1/2/4
f 7/19/5 5/13/5 1/2/5
f 4/11/6 2/5/6 6/16/6
