# Blender 3.5.0
# www.blender.org
mtllib PlayerHead.mtl
o 頭
v -2.000000 1.000000 2.000000
v -2.000000 5.000000 2.000000
v -2.000000 1.000000 -2.000000
v -2.000000 5.000000 -2.000000
v 2.000000 1.000000 2.000000
v 2.000000 5.000000 2.000000
v 2.000000 1.000000 -2.000000
v 2.000000 5.000000 -2.000000
vn -1.0000 -0.0000 -0.0000
vn -0.0000 -0.0000 -1.0000
vn 1.0000 -0.0000 -0.0000
vn -0.0000 -0.0000 1.0000
vn -0.0000 -1.0000 -0.0000
vn -0.0000 1.0000 -0.0000
vt 0.726560 0.656080
vt 0.678730 0.345818
vt 0.130583 0.608250
vt 0.630900 0.656080
vt 0.583070 0.345818
vt 0.107301 0.608250
vt 0.607617 0.656080
vt 0.130583 0.512590
vt 0.726560 0.560420
vt 0.630900 0.560420
vt 0.511958 0.656080
vt 0.107301 0.512590
vt 0.678730 0.441478
vt 0.440845 0.607617
vt 0.226243 0.608250
vt 0.345185 0.607617
vt 0.583070 0.441478
vt 0.011641 0.608250
vt 0.440845 0.703277
vt 0.607617 0.560420
vt 0.226243 0.512590
vt 0.011641 0.512590
vt 0.511958 0.560420
vt 0.345185 0.703277
s 0
usemtl マテリアル.014
f 2/4/1 3/9/1 1/1/1
f 4/11/2 7/20/2 3/7/2
f 8/24/3 5/14/3 7/19/3
f 6/17/4 1/2/4 5/13/4
f 7/21/5 1/3/5 3/8/5
f 4/12/6 6/18/6 8/22/6
f 2/4/1 4/10/1 3/9/1
f 4/11/2 8/23/2 7/20/2
f 8/24/3 6/16/3 5/14/3
f 6/17/4 2/5/4 1/2/4
f 7/21/5 5/15/5 1/3/5
f 4/12/6 2/6/6 6/18/6
