# Blender 3.5.0
# www.blender.org
mtllib EnemyWeapon.mtl
o 円柱
v 0.422618 -25.000000 -0.906311
v 0.422618 25.000000 -0.906311
v 0.939692 -25.000000 -0.342023
v 0.934802 27.774406 -0.230019
v 0.906308 -25.000000 0.422615
v 0.911198 27.774406 0.310611
v 0.342020 -25.000000 0.939689
v 0.342020 25.000000 0.939689
v -0.422618 -25.000000 0.906305
v -0.422618 25.000000 0.906305
v -0.939693 -25.000000 0.342017
v -0.939693 25.000000 0.342017
v -0.906308 -25.000000 -0.422622
v -0.906308 25.000000 -0.422622
v -0.342021 -25.000000 -0.939696
v -0.342021 25.000000 -0.939696
v 0.934802 33.225594 -0.230019
v 0.422618 36.000000 -0.906311
v 0.911198 33.225594 0.310611
v 0.342020 36.000000 0.939689
v -0.422618 36.000000 0.906305
v -0.939693 36.000000 0.342017
v -0.906308 36.000000 -0.422622
v -0.342021 36.000000 -0.939696
v 0.906308 25.000000 0.422615
v 0.939692 25.000000 -0.342023
v 0.906308 36.000000 0.422615
v 0.939692 36.000000 -0.342023
v 2.511974 27.776302 0.449307
v 2.511974 27.776302 -0.449314
v 2.511974 33.315742 0.449308
v 2.511974 33.315742 -0.449313
v 9.583040 37.917091 -0.000003
v 12.511972 30.846024 -0.000003
v 9.583040 23.774956 -0.000004
v 2.511974 40.846024 -0.503402
v 2.511974 40.846024 0.503396
v 2.511974 20.846024 0.503396
v 2.511974 20.846024 -0.503403
vn 0.7373 -0.0000 -0.6756
vn 0.9990 -0.0000 0.0436
vn 0.6756 -0.0000 0.7373
vn -0.0436 -0.0000 0.9990
vn -0.7373 -0.0000 0.6756
vn -0.9990 -0.0000 -0.0436
vn -0.0571 0.9984 -0.0000
vn -0.6756 -0.0000 -0.7373
vn 0.0436 -0.0000 -0.9990
vn -0.0000 -1.0000 -0.0000
vn -0.0000 1.0000 -0.0000
vn 1.0000 -0.0000 -0.0000
vn -0.1377 -0.0000 -0.9905
vn 0.0012 -1.0000 0.0001
vn -0.0863 -0.0000 0.9963
vn 0.3827 0.9239 -0.0000
vn 0.3827 -0.9239 -0.0000
vn 0.0856 -0.0354 -0.9957
vn 0.0856 -0.0354 0.9957
vn -1.0000 -0.0000 -0.0000
vn -0.0560 0.9984 -0.0024
vn 0.0012 -1.0000 -0.0000
vn 0.0503 -0.0000 -0.9987
vn 0.0856 0.0354 -0.9957
vn 0.0856 0.0354 0.9957
vn 0.0503 -0.0000 0.9987
vt 1.000000 0.500000
vt 0.000000 0.500000
vt 0.750000 0.490000
vt 0.000000 1.000000
vt 1.000000 1.000000
vt 0.875000 0.500000
vt 0.919706 0.419706
vt 0.856690 1.000000
vt 0.750000 0.500000
vt 0.990000 0.250000
vt 0.768310 1.000000
vt 0.625000 0.500000
vt 0.919706 0.080294
vt 0.625000 1.000000
vt 0.500000 0.500000
vt 0.750000 0.010000
vt 0.500000 1.000000
vt 0.375000 0.500000
vt 0.580294 0.080294
vt 0.375000 1.000000
vt 0.250000 0.500000
vt 0.510000 0.250000
vt 0.250000 1.000000
vt 0.125000 0.500000
vt 0.580294 0.419706
vt 0.125000 1.000000
vt 0.856690 1.000000
vt 0.250000 0.490000
vt 0.000000 1.000000
vt 1.000000 1.000000
vt 0.768310 1.000000
vt 0.419706 0.080294
vt 0.625000 1.000000
vt 0.250000 0.010000
vt 0.500000 1.000000
vt 0.080294 0.080294
vt 0.375000 1.000000
vt 0.010000 0.250000
vt 0.250000 1.000000
vt 0.080294 0.419706
vt 0.125000 1.000000
vt 0.750000 1.000000
vt 0.875000 1.000000
vt 0.490000 0.250000
vt 0.750000 1.000000
vt 0.419706 0.419706
vt 0.875000 1.000000
vt 0.768310 1.000000
vt 0.501352 0.973138
vt 0.856690 1.000000
vt 0.501352 0.526862
vt 0.768310 1.000000
vt 0.998648 0.973138
vt 0.856690 1.000000
vt 0.998648 0.526862
vt 0.875000 0.500000
vt 0.875000 1.000000
vt 0.750000 0.500000
vt 0.750000 1.000000
vt 0.625000 0.500000
vt 0.625000 1.000000
vt 1.000000 0.500000
vt 1.000000 1.000000
vt 0.500000 1.000000
vt 0.500000 0.500000
s 0
usemtl マテリアル
f 2/5/1 3/6/1 1/1/1
f 26/43/2 5/9/2 3/6/2
f 25/42/3 7/12/3 5/9/3
f 8/14/4 9/15/4 7/12/4
f 10/17/5 11/18/5 9/15/5
f 12/20/6 13/21/6 11/18/6
f 17/27/7 31/52/7 32/54/7
f 14/23/8 15/24/8 13/21/8
f 16/26/9 1/2/9 15/24/9
f 7/13/10 11/19/10 15/25/10
f 20/32/11 27/44/11 23/38/11
f 10/17/5 22/37/5 12/20/5
f 16/26/9 18/29/9 2/4/9
f 2/5/1 28/47/1 26/43/1
f 25/42/3 20/33/3 8/14/3
f 12/20/6 23/39/6 14/23/6
f 8/14/4 21/35/4 10/17/4
f 14/23/8 24/41/8 16/26/8
f 6/11/2 26/43/2 4/8/2
f 17/27/2 27/45/2 19/31/2
f 4/8/2 28/47/2 17/27/2
f 19/31/2 25/42/2 6/11/2
f 29/48/12 32/54/12 31/52/12
f 17/27/13 30/50/13 4/8/13
f 4/8/14 29/48/14 6/11/14
f 19/31/15 29/48/15 31/52/15
f 36/62/16 37/63/16 33/56/16
f 35/61/17 38/64/17 39/65/17
f 34/58/18 35/60/18 39/65/18
f 38/64/19 35/61/19 34/59/19
f 31/53/20 36/62/20 32/55/20
f 30/51/20 38/64/20 29/49/20
f 32/55/20 39/65/20 30/51/20
f 31/53/20 38/64/20 37/63/20
f 2/5/1 26/43/1 3/6/1
f 26/43/2 25/42/2 5/9/2
f 25/42/3 8/14/3 7/12/3
f 8/14/4 10/17/4 9/15/4
f 10/17/5 12/20/5 11/18/5
f 12/20/6 14/23/6 13/21/6
f 17/27/21 19/31/21 31/52/21
f 14/23/8 16/26/8 15/24/8
f 16/26/9 2/4/9 1/2/9
f 15/25/10 1/3/10 3/7/10
f 3/7/10 5/10/10 7/13/10
f 7/13/10 9/16/10 11/19/10
f 11/19/10 13/22/10 15/25/10
f 15/25/10 3/7/10 7/13/10
f 27/44/11 28/46/11 18/28/11
f 18/28/11 24/40/11 27/44/11
f 24/40/11 23/38/11 27/44/11
f 23/38/11 22/36/11 21/34/11
f 21/34/11 20/32/11 23/38/11
f 10/17/5 21/35/5 22/37/5
f 16/26/9 24/41/9 18/29/9
f 2/5/1 18/30/1 28/47/1
f 25/42/3 27/45/3 20/33/3
f 12/20/6 22/37/6 23/39/6
f 8/14/4 20/33/4 21/35/4
f 14/23/8 23/39/8 24/41/8
f 6/11/2 25/42/2 26/43/2
f 17/27/2 28/47/2 27/45/2
f 4/8/2 26/43/2 28/47/2
f 19/31/2 27/45/2 25/42/2
f 29/48/12 30/50/12 32/54/12
f 17/27/13 32/54/13 30/50/13
f 4/8/22 30/50/22 29/48/22
f 19/31/15 6/11/15 29/48/15
f 39/65/23 36/62/23 34/58/23
f 36/62/24 33/56/24 34/58/24
f 34/59/25 33/57/25 37/63/25
f 37/63/26 38/64/26 34/59/26
f 31/53/20 37/63/20 36/62/20
f 30/51/20 39/65/20 38/64/20
f 32/55/20 36/62/20 39/65/20
f 31/53/20 29/49/20 38/64/20
